<svg xmlns="http://www.w3.org/2000/svg" viewBox="0 0 800 1200" shape-rendering="crispEdges">
  <title>原创像素风作物四阶段生命周期图集</title>
  <defs>
    <style>
      .outline{fill:#542916}.outline2{fill:#71391c}.soil-dark{fill:#4a2719}.soil{fill:#75401f}.soil-light{fill:#a05d2b}
      .stem-dark{fill:#285336}.stem{fill:#3f7540}.leaf-dark{fill:#2e6236}.leaf{fill:#4f8d3e}.leaf-light{fill:#78ad49}
      .carrot-dark{fill:#b64d18}.carrot{fill:#e87924}.carrot-light{fill:#ffad3d}
      .tomato-dark{fill:#9d2f25}.tomato{fill:#d94b31}.tomato-light{fill:#ff7850}.flower{fill:#f4d65a}
      .cabbage-dark{fill:#477a3c}.cabbage{fill:#72a64e}.cabbage-light{fill:#a4c969}
      .green-dark{fill:#34713e}.green{fill:#57a34a}.green-light{fill:#86c85c}
      .pumpkin-dark{fill:#9c491d}.pumpkin{fill:#d87525}.pumpkin-light{fill:#f6ac32}.star{fill:#ffe47a}
      .onion-dark{fill:#70416c}.onion{fill:#9c648e}.onion-light{fill:#d195b7}
    </style>
    <g id="soil-patch">
      <rect class="soil-dark" x="38" y="168" width="124" height="12"/>
      <rect class="outline" x="46" y="156" width="108" height="20"/>
      <rect class="soil" x="50" y="156" width="100" height="16"/>
      <rect class="soil-light" x="58" y="156" width="24" height="4"/>
      <rect class="soil-light" x="110" y="164" width="20" height="4"/>
      <rect class="soil-dark" x="88" y="168" width="16" height="4"/>
    </g>
    <g id="sprout-two-leaf">
      <rect class="outline" x="96" y="132" width="8" height="28"/>
      <rect class="stem" x="98" y="130" width="4" height="28"/>
      <rect class="outline" x="74" y="126" width="26" height="12"/>
      <rect class="leaf" x="78" y="126" width="20" height="8"/>
      <rect class="outline" x="100" y="118" width="28" height="14"/>
      <rect class="leaf-light" x="104" y="120" width="20" height="8"/>
    </g>
  </defs>

  <!-- Row 1: carrot / 胡萝卜 -->
  <g id="carrot-seedling" transform="translate(0 0)">
    <use href="#soil-patch"/>
    <use href="#sprout-two-leaf"/>
  </g>
  <g id="carrot-leaf" transform="translate(200 0)">
    <use href="#soil-patch"/>
    <rect class="outline" x="94" y="104" width="12" height="58"/>
    <rect class="stem" x="98" y="104" width="4" height="54"/>
    <rect class="outline" x="62" y="112" width="36" height="16"/>
    <rect class="leaf" x="66" y="112" width="28" height="12"/>
    <rect class="outline" x="72" y="88" width="22" height="30"/>
    <rect class="leaf-light" x="76" y="92" width="14" height="22"/>
    <rect class="outline" x="104" y="82" width="22" height="36"/>
    <rect class="leaf" x="108" y="86" width="14" height="28"/>
    <rect class="outline" x="108" y="112" width="34" height="16"/>
    <rect class="leaf-light" x="112" y="112" width="26" height="12"/>
  </g>
  <g id="carrot-bulking" transform="translate(400 0)">
    <use href="#soil-patch"/>
    <rect class="outline" x="86" y="126" width="28" height="38"/>
    <rect class="carrot-dark" x="90" y="132" width="20" height="28"/>
    <rect class="carrot" x="94" y="132" width="12" height="28"/>
    <rect class="outline" x="96" y="72" width="8" height="62"/>
    <rect class="stem" x="98" y="76" width="4" height="54"/>
    <rect class="outline" x="58" y="86" width="42" height="18"/>
    <rect class="leaf" x="62" y="88" width="34" height="12"/>
    <rect class="outline" x="72" y="58" width="22" height="38"/>
    <rect class="leaf-light" x="76" y="62" width="14" height="30"/>
    <rect class="outline" x="106" y="54" width="22" height="42"/>
    <rect class="leaf" x="110" y="58" width="14" height="34"/>
    <rect class="outline" x="106" y="88" width="40" height="18"/>
    <rect class="leaf-light" x="110" y="90" width="32" height="12"/>
  </g>
  <g id="carrot-ready" transform="translate(600 0)">
    <use href="#soil-patch"/>
    <rect class="outline" x="74" y="120" width="52" height="20"/>
    <rect class="outline" x="80" y="136" width="40" height="28"/>
    <rect class="outline" x="88" y="160" width="24" height="16"/>
    <rect class="carrot-dark" x="78" y="124" width="44" height="14"/>
    <rect class="carrot" x="84" y="138" width="32" height="24"/>
    <rect class="carrot" x="92" y="160" width="16" height="12"/>
    <rect class="carrot-light" x="84" y="126" width="14" height="8"/>
    <rect class="outline" x="96" y="60" width="8" height="64"/>
    <rect class="stem" x="98" y="64" width="4" height="58"/>
    <rect class="outline" x="52" y="76" width="44" height="20"/>
    <rect class="leaf" x="56" y="80" width="36" height="12"/>
    <rect class="outline" x="66" y="42" width="26" height="44"/>
    <rect class="leaf-light" x="70" y="46" width="18" height="36"/>
    <rect class="outline" x="108" y="38" width="26" height="48"/>
    <rect class="leaf" x="112" y="42" width="18" height="40"/>
    <rect class="outline" x="106" y="76" width="46" height="20"/>
    <rect class="leaf-light" x="110" y="80" width="38" height="12"/>
  </g>

  <!-- Row 2: tomato / 番茄 -->
  <g id="tomato-seedling" transform="translate(0 200)">
    <use href="#soil-patch"/>
    <use href="#sprout-two-leaf"/>
  </g>
  <g id="tomato-leaf" transform="translate(200 200)">
    <use href="#soil-patch"/>
    <rect class="outline" x="96" y="76" width="10" height="86"/>
    <rect class="stem" x="99" y="80" width="4" height="78"/>
    <rect class="outline2" x="118" y="58" width="8" height="106"/>
    <rect class="soil-light" x="120" y="60" width="4" height="102"/>
    <rect class="outline" x="66" y="94" width="34" height="18"/>
    <rect class="leaf" x="70" y="98" width="26" height="10"/>
    <rect class="outline" x="102" y="76" width="34" height="18"/>
    <rect class="leaf-light" x="106" y="80" width="26" height="10"/>
    <rect class="outline" x="70" y="122" width="30" height="18"/>
    <rect class="leaf-light" x="74" y="126" width="22" height="10"/>
    <rect class="outline" x="102" y="112" width="38" height="18"/>
    <rect class="leaf" x="106" y="116" width="30" height="10"/>
  </g>
  <g id="tomato-fruiting" transform="translate(400 200)">
    <use href="#soil-patch"/>
    <rect class="outline2" x="120" y="38" width="8" height="126"/>
    <rect class="soil-light" x="122" y="40" width="4" height="122"/>
    <rect class="outline" x="96" y="56" width="10" height="108"/>
    <rect class="stem" x="99" y="60" width="4" height="100"/>
    <rect class="outline" x="56" y="76" width="44" height="20"/>
    <rect class="leaf" x="60" y="80" width="36" height="12"/>
    <rect class="outline" x="104" y="62" width="46" height="20"/>
    <rect class="leaf-light" x="108" y="66" width="38" height="12"/>
    <rect class="outline" x="58" y="110" width="40" height="20"/>
    <rect class="leaf-light" x="62" y="114" width="32" height="12"/>
    <rect class="outline" x="104" y="104" width="42" height="20"/>
    <rect class="leaf" x="108" y="108" width="34" height="12"/>
    <rect class="outline" x="74" y="88" width="18" height="18"/>
    <rect class="stem" x="78" y="88" width="10" height="6"/>
    <rect class="leaf-light" x="78" y="94" width="10" height="8"/>
    <rect class="outline" x="108" y="126" width="20" height="18"/>
    <rect class="stem" x="112" y="126" width="12" height="6"/>
    <rect class="leaf-light" x="112" y="132" width="12" height="8"/>
    <rect class="flower" x="86" y="58" width="8" height="8"/>
  </g>
  <g id="tomato-ready" transform="translate(600 200)">
    <use href="#soil-patch"/>
    <rect class="outline2" x="124" y="34" width="8" height="130"/>
    <rect class="soil-light" x="126" y="36" width="4" height="126"/>
    <rect class="outline" x="96" y="50" width="10" height="114"/>
    <rect class="stem" x="99" y="54" width="4" height="106"/>
    <rect class="outline" x="48" y="68" width="52" height="22"/>
    <rect class="leaf" x="52" y="72" width="44" height="14"/>
    <rect class="outline" x="104" y="58" width="52" height="22"/>
    <rect class="leaf-light" x="108" y="62" width="44" height="14"/>
    <rect class="outline" x="50" y="116" width="48" height="22"/>
    <rect class="leaf-light" x="54" y="120" width="40" height="14"/>
    <rect class="outline" x="104" y="108" width="48" height="22"/>
    <rect class="leaf" x="108" y="112" width="40" height="14"/>
    <rect class="outline" x="68" y="86" width="32" height="30"/>
    <rect class="tomato-dark" x="72" y="90" width="24" height="22"/>
    <rect class="tomato" x="76" y="92" width="20" height="18"/>
    <rect class="tomato-light" x="78" y="94" width="8" height="6"/>
    <rect class="outline" x="108" y="126" width="34" height="30"/>
    <rect class="tomato-dark" x="112" y="130" width="26" height="22"/>
    <rect class="tomato" x="116" y="132" width="22" height="18"/>
    <rect class="tomato-light" x="118" y="134" width="8" height="6"/>
  </g>

  <!-- Row 3: cabbage / 卷心菜 -->
  <g id="cabbage-seedling" transform="translate(0 400)">
    <use href="#soil-patch"/>
    <use href="#sprout-two-leaf"/>
  </g>
  <g id="cabbage-leaf" transform="translate(200 400)">
    <use href="#soil-patch"/>
    <rect class="outline" x="56" y="120" width="88" height="34"/>
    <rect class="cabbage-dark" x="60" y="124" width="80" height="26"/>
    <rect class="leaf" x="68" y="120" width="28" height="26"/>
    <rect class="leaf-light" x="104" y="120" width="28" height="26"/>
    <rect class="outline" x="86" y="96" width="30" height="50"/>
    <rect class="leaf" x="90" y="100" width="22" height="42"/>
  </g>
  <g id="cabbage-bulking" transform="translate(400 400)">
    <use href="#soil-patch"/>
    <rect class="outline" x="42" y="112" width="116" height="46"/>
    <rect class="cabbage-dark" x="46" y="116" width="108" height="38"/>
    <rect class="leaf" x="52" y="116" width="40" height="34"/>
    <rect class="leaf-light" x="108" y="116" width="40" height="34"/>
    <rect class="outline" x="70" y="86" width="60" height="68"/>
    <rect class="cabbage" x="74" y="90" width="52" height="60"/>
    <rect class="cabbage-light" x="84" y="94" width="18" height="48"/>
    <rect class="cabbage-dark" x="108" y="102" width="14" height="40"/>
  </g>
  <g id="cabbage-ready" transform="translate(600 400)">
    <use href="#soil-patch"/>
    <rect class="outline" x="32" y="112" width="136" height="50"/>
    <rect class="cabbage-dark" x="36" y="116" width="128" height="42"/>
    <rect class="leaf" x="42" y="116" width="42" height="38"/>
    <rect class="leaf-light" x="116" y="116" width="42" height="38"/>
    <rect class="outline" x="54" y="70" width="92" height="88"/>
    <rect class="cabbage" x="58" y="74" width="84" height="80"/>
    <rect class="cabbage-light" x="70" y="82" width="56" height="64"/>
    <rect class="cabbage" x="82" y="86" width="32" height="56"/>
    <rect class="cabbage-dark" x="98" y="78" width="8" height="68"/>
    <rect class="cabbage-dark" x="66" y="110" width="68" height="8"/>
  </g>

  <!-- Row 4: leafy greens / 青菜 -->
  <g id="leafy-seedling" transform="translate(0 600)">
    <use href="#soil-patch"/>
    <use href="#sprout-two-leaf"/>
  </g>
  <g id="leafy-leaf" transform="translate(200 600)">
    <use href="#soil-patch"/>
    <rect class="outline" x="70" y="98" width="22" height="60"/>
    <rect class="green" x="74" y="102" width="14" height="52"/>
    <rect class="outline" x="91" y="80" width="22" height="78"/>
    <rect class="green-light" x="95" y="84" width="14" height="70"/>
    <rect class="outline" x="112" y="102" width="22" height="56"/>
    <rect class="green" x="116" y="106" width="14" height="48"/>
  </g>
  <g id="leafy-bulking" transform="translate(400 600)">
    <use href="#soil-patch"/>
    <rect class="outline" x="50" y="94" width="28" height="66"/>
    <rect class="green" x="54" y="98" width="20" height="58"/>
    <rect class="outline" x="72" y="68" width="30" height="92"/>
    <rect class="green-light" x="76" y="72" width="22" height="84"/>
    <rect class="outline" x="98" y="58" width="30" height="102"/>
    <rect class="green" x="102" y="62" width="22" height="94"/>
    <rect class="outline" x="124" y="84" width="28" height="76"/>
    <rect class="green-light" x="128" y="88" width="20" height="68"/>
  </g>
  <g id="leafy-ready" transform="translate(600 600)">
    <use href="#soil-patch"/>
    <rect class="outline" x="34" y="88" width="34" height="74"/>
    <rect class="green-dark" x="38" y="92" width="26" height="66"/>
    <rect class="outline" x="58" y="58" width="36" height="104"/>
    <rect class="green" x="62" y="62" width="28" height="96"/>
    <rect class="outline" x="84" y="36" width="34" height="126"/>
    <rect class="green-light" x="88" y="40" width="26" height="118"/>
    <rect class="outline" x="108" y="52" width="36" height="110"/>
    <rect class="green" x="112" y="56" width="28" height="102"/>
    <rect class="outline" x="136" y="84" width="30" height="78"/>
    <rect class="green-light" x="140" y="88" width="22" height="70"/>
    <rect class="stem-dark" x="92" y="110" width="18" height="52"/>
    <rect class="stem" x="96" y="112" width="10" height="46"/>
  </g>

  <!-- Row 5: star pumpkin / 星光南瓜 -->
  <g id="pumpkin-seedling" transform="translate(0 800)">
    <use href="#soil-patch"/>
    <use href="#sprout-two-leaf"/>
  </g>
  <g id="pumpkin-leaf" transform="translate(200 800)">
    <use href="#soil-patch"/>
    <rect class="outline" x="54" y="142" width="94" height="12"/>
    <rect class="stem" x="58" y="145" width="86" height="6"/>
    <rect class="outline" x="60" y="116" width="38" height="30"/>
    <rect class="leaf" x="64" y="120" width="30" height="22"/>
    <rect class="outline" x="112" y="110" width="42" height="34"/>
    <rect class="leaf-light" x="116" y="114" width="34" height="26"/>
    <rect class="outline" x="92" y="92" width="20" height="54"/>
    <rect class="stem" x="96" y="96" width="12" height="46"/>
  </g>
  <g id="pumpkin-bulking" transform="translate(400 800)">
    <use href="#soil-patch"/>
    <rect class="outline" x="38" y="142" width="124" height="12"/>
    <rect class="stem" x="42" y="145" width="116" height="6"/>
    <rect class="outline" x="42" y="104" width="46" height="38"/>
    <rect class="leaf" x="46" y="108" width="38" height="30"/>
    <rect class="outline" x="116" y="98" width="46" height="42"/>
    <rect class="leaf-light" x="120" y="102" width="38" height="34"/>
    <rect class="outline" x="76" y="106" width="52" height="52"/>
    <rect class="pumpkin-dark" x="80" y="112" width="44" height="42"/>
    <rect class="stem-dark" x="96" y="98" width="12" height="16"/>
    <rect class="leaf" x="84" y="116" width="32" height="34"/>
  </g>
  <g id="pumpkin-ready" transform="translate(600 800)">
    <use href="#soil-patch"/>
    <rect class="outline" x="28" y="140" width="144" height="14"/>
    <rect class="stem" x="32" y="144" width="136" height="6"/>
    <rect class="outline" x="28" y="94" width="48" height="42"/>
    <rect class="leaf" x="32" y="98" width="40" height="34"/>
    <rect class="outline" x="132" y="90" width="44" height="42"/>
    <rect class="leaf-light" x="136" y="94" width="36" height="34"/>
    <rect class="outline" x="52" y="78" width="100" height="82"/>
    <rect class="pumpkin-dark" x="56" y="84" width="92" height="72"/>
    <rect class="pumpkin" x="64" y="88" width="76" height="64"/>
    <rect class="pumpkin-light" x="74" y="92" width="18" height="56"/>
    <rect class="pumpkin-dark" x="104" y="88" width="10" height="64"/>
    <rect class="stem-dark" x="94" y="62" width="18" height="24"/>
    <rect class="stem" x="98" y="64" width="10" height="20"/>
    <rect class="star" x="112" y="104" width="8" height="32"/>
    <rect class="star" x="100" y="116" width="32" height="8"/>
    <rect class="star" x="108" y="108" width="16" height="24"/>
  </g>

  <!-- Row 6: onion / 洋葱 -->
  <g id="onion-seedling" transform="translate(0 1000)">
    <use href="#soil-patch"/>
    <rect class="outline" x="94" y="112" width="10" height="50"/>
    <rect class="stem" x="97" y="116" width="4" height="42"/>
    <rect class="outline" x="80" y="124" width="18" height="38"/>
    <rect class="leaf" x="84" y="128" width="10" height="30"/>
    <rect class="outline" x="102" y="122" width="18" height="40"/>
    <rect class="leaf-light" x="106" y="126" width="10" height="32"/>
  </g>
  <g id="onion-leaf" transform="translate(200 1000)">
    <use href="#soil-patch"/>
    <rect class="outline" x="68" y="76" width="16" height="86"/>
    <rect class="leaf" x="72" y="80" width="8" height="78"/>
    <rect class="outline" x="88" y="52" width="16" height="110"/>
    <rect class="leaf-light" x="92" y="56" width="8" height="102"/>
    <rect class="outline" x="108" y="64" width="16" height="98"/>
    <rect class="leaf" x="112" y="68" width="8" height="90"/>
    <rect class="outline" x="128" y="90" width="16" height="72"/>
    <rect class="leaf-light" x="132" y="94" width="8" height="64"/>
  </g>
  <g id="onion-bulking" transform="translate(400 1000)">
    <use href="#soil-patch"/>
    <rect class="outline" x="76" y="126" width="50" height="38"/>
    <rect class="onion-dark" x="80" y="132" width="42" height="28"/>
    <rect class="onion" x="88" y="130" width="26" height="30"/>
    <rect class="outline" x="70" y="64" width="16" height="70"/>
    <rect class="leaf" x="74" y="68" width="8" height="62"/>
    <rect class="outline" x="90" y="38" width="16" height="96"/>
    <rect class="leaf-light" x="94" y="42" width="8" height="88"/>
    <rect class="outline" x="110" y="50" width="16" height="84"/>
    <rect class="leaf" x="114" y="54" width="8" height="76"/>
    <rect class="outline" x="130" y="76" width="16" height="58"/>
    <rect class="leaf-light" x="134" y="80" width="8" height="50"/>
  </g>
  <g id="onion-ready" transform="translate(600 1000)">
    <use href="#soil-patch"/>
    <rect class="outline" x="58" y="112" width="86" height="50"/>
    <rect class="outline" x="68" y="104" width="66" height="66"/>
    <rect class="onion-dark" x="64" y="118" width="74" height="40"/>
    <rect class="onion" x="72" y="108" width="58" height="54"/>
    <rect class="onion-light" x="82" y="112" width="20" height="46"/>
    <rect class="onion-dark" x="112" y="110" width="10" height="50"/>
    <rect class="outline" x="70" y="50" width="16" height="64"/>
    <rect class="leaf" x="74" y="54" width="8" height="56"/>
    <rect class="outline" x="92" y="24" width="16" height="90"/>
    <rect class="leaf-light" x="96" y="28" width="8" height="82"/>
    <rect class="outline" x="114" y="38" width="16" height="76"/>
    <rect class="leaf" x="118" y="42" width="8" height="68"/>
    <rect class="outline" x="136" y="62" width="16" height="52"/>
    <rect class="leaf-light" x="140" y="66" width="8" height="44"/>
  </g>
</svg>
